<svg width="12" height="12" viewBox="0 0 12 12" fill="none" xmlns="http://www.w3.org/2000/svg">
<path fill-rule="evenodd" clip-rule="evenodd" d="M9.66683 11.3335C10.1089 11.3335 10.5328 11.1579 10.8453 10.8453C11.1579 10.5328 11.3335 10.1089 11.3335 9.66683C11.3335 9.2248 11.1579 8.80088 10.8453 8.48832C10.5328 8.17576 10.1089 8.00016 9.66683 8.00016C9.2248 8.00016 8.80088 8.17576 8.48832 8.48832C8.17576 8.80088 8.00016 9.2248 8.00016 9.66683C8.00016 10.1089 8.17576 10.5328 8.48832 10.8453C8.80088 11.1579 9.2248 11.3335 9.66683 11.3335ZM9.66683 12.0002C10.2857 12.0002 10.8792 11.7543 11.3167 11.3167C11.7543 10.8792 12.0002 10.2857 12.0002 9.66683C12.0002 9.04799 11.7543 8.4545 11.3167 8.01691C10.8792 7.57933 10.2857 7.3335 9.66683 7.3335C9.04799 7.3335 8.4545 7.57933 8.01691 8.01691C7.57933 8.4545 7.3335 9.04799 7.3335 9.66683C7.3335 10.2857 7.57933 10.8792 8.01691 11.3167C8.4545 11.7543 9.04799 12.0002 9.66683 12.0002Z" fill="#868686"/>
<path fill-rule="evenodd" clip-rule="evenodd" d="M9.66683 8.5C9.75524 8.5 9.84002 8.53512 9.90253 8.59763C9.96504 8.66014 10.0002 8.74493 10.0002 8.83333V9.52867L10.2358 9.76433C10.2965 9.8272 10.3301 9.9114 10.3294 9.9988C10.3286 10.0862 10.2936 10.1698 10.2318 10.2316C10.17 10.2934 10.0864 10.3285 9.99896 10.3292C9.91157 10.33 9.82736 10.2964 9.7645 10.2357L9.3335 9.80467V8.83333C9.3335 8.74493 9.36861 8.66014 9.43113 8.59763C9.49364 8.53512 9.57842 8.5 9.66683 8.5Z" fill="#868686"/>
<path fill-rule="evenodd" clip-rule="evenodd" d="M2.66683 5.66667H2.00016V6.33333H2.66683V5.66667ZM2.00016 5C1.82335 5 1.65378 5.07024 1.52876 5.19526C1.40373 5.32029 1.3335 5.48986 1.3335 5.66667V6.33333C1.3335 6.51014 1.40373 6.67971 1.52876 6.80474C1.65378 6.92976 1.82335 7 2.00016 7H2.66683C2.84364 7 3.01321 6.92976 3.13823 6.80474C3.26326 6.67971 3.3335 6.51014 3.3335 6.33333V5.66667C3.3335 5.48986 3.26326 5.32029 3.13823 5.19526C3.01321 5.07024 2.84364 5 2.66683 5H2.00016Z" fill="#868686"/>
<path fill-rule="evenodd" clip-rule="evenodd" d="M5.33333 5.66667H4.66667V6.33333H5.33333V5.66667ZM4.66667 5C4.48986 5 4.32029 5.07024 4.19526 5.19526C4.07024 5.32029 4 5.48986 4 5.66667V6.33333C4 6.51014 4.07024 6.67971 4.19526 6.80474C4.32029 6.92976 4.48986 7 4.66667 7H5.33333C5.51014 7 5.67971 6.92976 5.80474 6.80474C5.92976 6.67971 6 6.51014 6 6.33333V5.66667C6 5.48986 5.92976 5.32029 5.80474 5.19526C5.67971 5.07024 5.51014 5 5.33333 5H4.66667Z" fill="#868686"/>
<path fill-rule="evenodd" clip-rule="evenodd" d="M7.99984 5.66667H7.33317V6.33333H7.99984V5.66667ZM7.33317 5C7.15636 5 6.98679 5.07024 6.86177 5.19526C6.73674 5.32029 6.6665 5.48986 6.6665 5.66667V6.33333C6.6665 6.51014 6.73674 6.67971 6.86177 6.80474C6.98679 6.92976 7.15636 7 7.33317 7H7.99984C8.17665 7 8.34622 6.92976 8.47124 6.80474C8.59627 6.67971 8.6665 6.51014 8.6665 6.33333V5.66667C8.6665 5.48986 8.59627 5.32029 8.47124 5.19526C8.34622 5.07024 8.17665 5 7.99984 5H7.33317Z" fill="#868686"/>
<path fill-rule="evenodd" clip-rule="evenodd" d="M2.66683 8.33317H2.00016V8.99984H2.66683V8.33317ZM2.00016 7.6665C1.82335 7.6665 1.65378 7.73674 1.52876 7.86177C1.40373 7.98679 1.3335 8.15636 1.3335 8.33317V8.99984C1.3335 9.17665 1.40373 9.34622 1.52876 9.47124C1.65378 9.59627 1.82335 9.6665 2.00016 9.6665H2.66683C2.84364 9.6665 3.01321 9.59627 3.13823 9.47124C3.26326 9.34622 3.3335 9.17665 3.3335 8.99984V8.33317C3.3335 8.15636 3.26326 7.98679 3.13823 7.86177C3.01321 7.73674 2.84364 7.6665 2.66683 7.6665H2.00016Z" fill="#868686"/>
<path fill-rule="evenodd" clip-rule="evenodd" d="M5.33333 8.33317H4.66667V8.99984H5.33333V8.33317ZM4.66667 7.6665C4.48986 7.6665 4.32029 7.73674 4.19526 7.86177C4.07024 7.98679 4 8.15636 4 8.33317V8.99984C4 9.17665 4.07024 9.34622 4.19526 9.47124C4.32029 9.59627 4.48986 9.6665 4.66667 9.6665H5.33333C5.51014 9.6665 5.67971 9.59627 5.80474 9.47124C5.92976 9.34622 6 9.17665 6 8.99984V8.33317C6 8.15636 5.92976 7.98679 5.80474 7.86177C5.67971 7.73674 5.51014 7.6665 5.33333 7.6665H4.66667Z" fill="#868686"/>
<path fill-rule="evenodd" clip-rule="evenodd" d="M0.666667 2C0.666667 1.91159 0.701786 1.82681 0.764298 1.7643C0.82681 1.70179 0.911595 1.66667 1 1.66667H2.66667V1H1C0.734784 1 0.48043 1.10536 0.292893 1.29289C0.105357 1.48043 0 1.73478 0 2V10C0 10.2652 0.105357 10.5196 0.292893 10.7071C0.48043 10.8946 0.734784 11 1 11H7.75167C7.60952 10.7964 7.50092 10.5713 7.43 10.3333H1C0.911595 10.3333 0.82681 10.2982 0.764298 10.2357C0.701786 10.1732 0.666667 10.0884 0.666667 10V2ZM9.33333 7.35667C9.55443 7.32504 9.7789 7.32504 10 7.35667V2C10 1.73478 9.89464 1.48043 9.70711 1.29289C9.51957 1.10536 9.26522 1 9 1H8V1.66667H9C9.08841 1.66667 9.17319 1.70179 9.2357 1.7643C9.29821 1.82681 9.33333 1.91159 9.33333 2V7.35667ZM3.33333 1.66667H6.85433V1H3.33333V1.66667Z" fill="#868686"/>
<path fill-rule="evenodd" clip-rule="evenodd" d="M9.99984 4.00016H0.666504V3.3335H9.99984V4.00016Z" fill="#868686"/>
<path d="M2 0.333333C2 0.244928 2.03512 0.160143 2.09763 0.0976311C2.16014 0.035119 2.24493 0 2.33333 0C2.42174 0 2.50652 0.035119 2.56904 0.0976311C2.63155 0.160143 2.66667 0.244928 2.66667 0.333333V2C2.66667 2.08841 2.63155 2.17319 2.56904 2.2357C2.50652 2.29821 2.42174 2.33333 2.33333 2.33333C2.24493 2.33333 2.16014 2.29821 2.09763 2.2357C2.03512 2.17319 2 2.08841 2 2V0.333333Z" fill="#868686"/>
<path d="M6.6665 0.333333C6.6665 0.244928 6.70162 0.160143 6.76413 0.0976311C6.82665 0.035119 6.91143 0 6.99984 0C7.08824 0 7.17303 0.035119 7.23554 0.0976311C7.29805 0.160143 7.33317 0.244928 7.33317 0.333333V2C7.33317 2.08841 7.29805 2.17319 7.23554 2.2357C7.17303 2.29821 7.08824 2.33333 6.99984 2.33333C6.91143 2.33333 6.82665 2.29821 6.76413 2.2357C6.70162 2.17319 6.6665 2.08841 6.6665 2V0.333333Z" fill="#868686"/>
</svg>
