<svg width="77" height="77" viewBox="0 0 77 77" fill="none" xmlns="http://www.w3.org/2000/svg">
<path d="M64.6436 41.6225H52.2319" stroke="#19141E" stroke-width="5" stroke-linecap="round"/>
<path d="M26.7571 24.873C24.3974 24.873 22.4663 26.7835 22.4663 29.1189" stroke="white" stroke-width="5" stroke-linecap="round"/>
<path d="M8.36182 41.6225H23.6278" stroke="#19141E" stroke-width="5" stroke-linecap="round"/>
<path fill-rule="evenodd" clip-rule="evenodd" d="M64.0724 64.3015C66.3261 64.4604 68.1047 66.3202 68.1047 68.5908V70.5238H10.1527V68.5908C10.1527 66.3202 11.9309 64.4605 14.1849 64.3015V63.5358C14.1849 60.9186 16.1173 58.7264 18.64 58.2871V26.7211C18.64 23.7758 21.0755 21.3662 24.0516 21.3662H54.2058C57.1823 21.3662 59.6174 23.7758 59.6174 26.7211V58.2872C62.1401 58.7264 64.0724 60.9186 64.0724 63.5358V64.3015ZM73.2716 41.6229C73.2716 44.4961 70.918 46.8254 68.0144 46.8254C65.1108 46.8254 62.7568 44.4961 62.7568 41.6229C62.7568 38.7497 65.1108 36.4208 68.0144 36.4208C70.918 36.4208 73.2716 38.7497 73.2716 41.6229ZM8.51687 36.4208C5.61328 36.4208 3.25928 38.7497 3.25928 41.6229C3.25928 44.4961 5.61328 46.8254 8.51687 46.8254C11.4205 46.8254 13.7745 44.4961 13.7745 41.6229C13.7745 38.7497 11.4205 36.4208 8.51687 36.4208Z" fill="#6CA1FF"/>
<path opacity="0.395926" fill-rule="evenodd" clip-rule="evenodd" d="M14.1849 64.3017V62.9736C14.421 60.5651 16.6082 58.2073 19.57 58.2073H58.6873C61.6491 58.2073 63.7445 60.384 64.0724 62.7999V64.3017C66.3261 64.4607 68.1047 66.3204 68.1047 68.591V70.524H10.1527V68.591C10.1527 66.3204 11.9309 64.4607 14.1849 64.3017ZM73.2716 41.623C73.2716 44.4962 70.918 46.8256 68.0144 46.8256C65.1108 46.8256 62.7568 44.4962 62.7568 41.623C62.7568 38.7498 65.1108 36.4209 68.0144 36.4209C70.918 36.4209 73.2716 38.7498 73.2716 41.623ZM3.25928 41.623C3.25928 38.7498 5.61328 36.4209 8.51687 36.4209C11.4205 36.4209 13.7745 38.7498 13.7745 41.623C13.7745 44.4962 11.4205 46.8256 8.51687 46.8256C5.61328 46.8256 3.25928 44.4962 3.25928 41.623Z" fill="black"/>
<path d="M14.5283 64.4291H63.9505" stroke="#19141E" stroke-width="5"/>
<path d="M27.0752 50.1068H59.6173" stroke="#19141E" stroke-width="7"/>
<path fill-rule="evenodd" clip-rule="evenodd" d="M35.5803 34.7997C33.2866 36.6679 32.9578 40.0224 34.8457 42.2921C36.7337 44.5618 40.1237 44.8871 42.4174 43.019C44.7111 41.1508 45.0399 37.7963 43.152 35.5266C41.264 33.2569 37.874 32.9315 35.5803 34.7997Z" fill="white"/>
<path fill-rule="evenodd" clip-rule="evenodd" d="M38.4543 37.0784C37.4008 37.9367 37.2496 39.4775 38.117 40.5204C38.9844 41.5629 40.5415 41.7125 41.595 40.8542C42.649 39.9959 42.8002 38.4551 41.9328 37.4122C41.0654 36.3697 39.5079 36.2201 38.4543 37.0784Z" fill="#19141E"/>
<path fill-rule="evenodd" clip-rule="evenodd" d="M49.7297 34.7997C47.436 36.6679 47.1072 40.0224 48.9952 42.2921C50.8831 44.5618 54.2731 44.8871 56.5668 43.019C58.8605 41.1508 59.1893 37.7963 57.3014 35.5266C55.4135 33.2569 52.0234 32.9315 49.7297 34.7997Z" fill="white"/>
<path fill-rule="evenodd" clip-rule="evenodd" d="M52.6042 37.0784C51.5507 37.9367 51.3995 39.4775 52.2669 40.5204C53.1343 41.5629 54.6914 41.7125 55.745 40.8542C56.7989 39.9959 56.9501 38.4551 56.0827 37.4122C55.2153 36.3697 53.6578 36.2201 52.6042 37.0784Z" fill="#19141E"/>
</svg>
