<svg width="93" height="120" viewBox="0 0 93 120" fill="none" xmlns="http://www.w3.org/2000/svg">
<circle cx="46.5" cy="46.5" r="46.5" fill="#F1F1F1"/>
<rect x="28.5919" y="45.9167" width="44.8252" height="63.035" rx="7" transform="rotate(2.5 28.5919 45.9167)" fill="#EEEEEE" stroke="#999999" stroke-width="2"/>
<rect x="0.801613" y="41.4389" width="48.8252" height="67.035" rx="9" transform="rotate(-7.5 0.801613 41.4389)" fill="#FAFAFA" stroke="#999999" stroke-width="2"/>
<path d="M2.96779 50.2314C2.39109 45.8509 5.47466 41.8323 9.85514 41.2556L40.4166 37.2321C44.7971 36.6554 48.8157 39.739 49.3924 44.1195L50.3006 51.018L3.876 57.1299L2.96779 50.2314Z" fill="#EEEEEE"/>
<rect x="58.4443" y="38.1387" width="1.95105" height="6.5035" rx="0.975524" transform="rotate(82.5 58.4443 38.1387)" fill="#999999"/>
<rect x="40.627" y="27.3647" width="1.95105" height="6.5035" rx="0.975524" transform="rotate(-7.5 40.627 27.3647)" fill="#999999"/>
<rect x="52.0586" y="29.1396" width="1.95105" height="6.5035" rx="0.975524" transform="rotate(37.5 52.0586 29.1396)" fill="#999999"/>
<rect x="8.729" y="59.1147" width="37.7203" height="2.6014" rx="1.3007" transform="rotate(-7.5 8.729 59.1147)" fill="#DCDCDC"/>
<rect x="10.4268" y="72.0103" width="37.7203" height="2.6014" rx="1.3007" transform="rotate(-7.5 10.4268 72.0103)" fill="#DCDCDC"/>
<rect x="12.1245" y="84.9062" width="37.7203" height="2.6014" rx="1.3007" transform="rotate(-7.5 12.1245 84.9062)" fill="#DCDCDC"/>
<rect x="9.40796" y="64.2729" width="13.6573" height="2.6014" rx="1.3007" transform="rotate(-7.5 9.40796 64.2729)" fill="#EEEEEE"/>
<rect x="11.106" y="77.1689" width="13.6573" height="2.6014" rx="1.3007" transform="rotate(-7.5 11.106 77.1689)" fill="#EEEEEE"/>
<rect x="12.8037" y="90.0645" width="13.6573" height="2.6014" rx="1.3007" transform="rotate(-7.5 12.8037 90.0645)" fill="#EEEEEE"/>
</svg>
