<svg width="67" height="67" viewBox="0 0 67 67" fill="none" xmlns="http://www.w3.org/2000/svg">
<path d="M41.2183 17.3369C41.2183 17.3369 35.028 21.3881 34.347 28.3972" stroke="#19141E" stroke-width="5" stroke-linecap="round"/>
<path fill-rule="evenodd" clip-rule="evenodd" d="M41.8037 20.3725C39.7405 20.3725 38.068 18.7172 38.068 16.6756C38.068 14.634 39.7405 12.979 41.8037 12.979C43.8669 12.979 45.5398 14.634 45.5398 16.6756C45.5398 18.7172 43.8669 20.3725 41.8037 20.3725ZM59.5999 46.8122H40.8549V61.5018H30.0927V46.8122H12.3326C8.26262 46.8122 4.93247 43.5169 4.93247 39.4896V34.5529C4.93247 30.5256 8.26262 27.2303 12.3326 27.2303H59.5999C63.6699 27.2303 67 30.5256 67 34.5529V39.4896C67 43.5169 63.6699 46.8122 59.5999 46.8122Z" fill="#C4C4C4"/>
<path opacity="0.399042" fill-rule="evenodd" clip-rule="evenodd" d="M40.8545 61.5015H30.0923V46.7686H40.8545V61.5015Z" fill="black"/>
<path opacity="0.400367" fill-rule="evenodd" clip-rule="evenodd" d="M40.8545 56.7363L30.0923 53.2285V46.7095H40.8545V56.7363Z" fill="black"/>
<path fill-rule="evenodd" clip-rule="evenodd" d="M59.5999 46.8124C63.6699 46.8124 67 43.5171 67 39.4897V34.5531C67 30.5257 63.6699 27.2305 59.5999 27.2305C55.5299 27.2305 52.1997 30.5257 52.1997 34.5531V39.4897C52.1997 43.5171 55.5299 46.8124 59.5999 46.8124Z" fill="#19141E"/>
<path fill-rule="evenodd" clip-rule="evenodd" d="M47.9937 37.0214C47.9937 40.122 45.4533 42.6357 42.3199 42.6357C39.1862 42.6357 36.6458 40.122 36.6458 37.0214C36.6458 33.9205 39.1862 31.4067 42.3199 31.4067C45.4533 31.4067 47.9937 33.9205 47.9937 37.0214Z" fill="white"/>
<path fill-rule="evenodd" clip-rule="evenodd" d="M44.1914 36.2322C44.1914 37.6567 43.0244 38.8115 41.5848 38.8115C40.1452 38.8115 38.9782 37.6567 38.9782 36.2322C38.9782 34.8076 40.1452 33.6528 41.5848 33.6528C43.0244 33.6528 44.1914 34.8076 44.1914 36.2322Z" fill="#19141E"/>
<path fill-rule="evenodd" clip-rule="evenodd" d="M20.3252 37.0214C20.3252 40.122 17.7849 42.6357 14.6511 42.6357C11.5174 42.6357 8.97703 40.122 8.97703 37.0214C8.97703 33.9205 11.5174 31.4067 14.6511 31.4067C17.7849 31.4067 20.3252 33.9205 20.3252 37.0214Z" fill="white"/>
<path fill-rule="evenodd" clip-rule="evenodd" d="M16.5229 36.2322C16.5229 37.6567 15.3559 38.8115 13.9163 38.8115C12.4767 38.8115 11.3097 37.6567 11.3097 36.2322C11.3097 34.8076 12.4767 33.6528 13.9163 33.6528C15.3559 33.6528 16.5229 34.8076 16.5229 36.2322Z" fill="#19141E"/>
<path fill-rule="evenodd" clip-rule="evenodd" d="M29.7822 33.1729L24.7072 36.9834L29.7822 40.8694" fill="#19141E"/>
</svg>
