<svg width="16" height="16" viewBox="0 0 16 16" fill="none" xmlns="http://www.w3.org/2000/svg">
<path d="M8 15C11.866 15 15 11.866 15 8C15 4.13401 11.866 1 8 1C4.13401 1 1 4.13401 1 8C1 11.866 4.13401 15 8 15Z" fill="#F7931A"/>
<path d="M7.33325 7.3335H8.66659V11.0002H7.33325V7.3335Z" fill="white"/>
<path d="M8.00008 6.33317C8.46032 6.33317 8.83341 5.96008 8.83341 5.49984C8.83341 5.0396 8.46032 4.6665 8.00008 4.6665C7.53984 4.6665 7.16675 5.0396 7.16675 5.49984C7.16675 5.96008 7.53984 6.33317 8.00008 6.33317Z" fill="white"/>
</svg>
